<svg xmlns="http://www.w3.org/2000/svg" xmlns:xlink="http://www.w3.org/1999/xlink" width="500" zoomAndPan="magnify" viewBox="0 0 375 374.999991" height="500" preserveAspectRatio="xMidYMid meet" version="1.0"><defs><clipPath id="6e2572ad3f"><path d="M 0 43 L 375 43 L 375 272 L 0 272 Z M 0 43 " clip-rule="nonzero"/></clipPath><clipPath id="4d2ee7a205"><path d="M 361.050781 337.496094 L -91.765625 169.429688 L -36.960938 21.773438 L 415.855469 189.839844 Z M 361.050781 337.496094 " clip-rule="nonzero"/></clipPath><clipPath id="cfd3248649"><path d="M 387.148438 267.183594 L 389.566406 260.664062 C 403.980469 221.832031 384.183594 178.667969 345.351562 164.253906 L 33.859375 48.644531 C -4.972656 34.230469 -48.136719 54.027344 -62.550781 92.859375 L -64.96875 99.378906 C -79.382812 138.210938 -59.585938 181.375 -20.753906 195.789062 L 290.738281 311.398438 C 329.570312 325.8125 372.734375 306.015625 387.148438 267.183594 Z M 387.148438 267.183594 " clip-rule="nonzero"/></clipPath><clipPath id="6e83c4fda4"><path d="M 361.050781 337.496094 L -91.0625 169.691406 L -36.519531 22.738281 L 415.59375 190.542969 Z M 361.050781 337.496094 " clip-rule="nonzero"/></clipPath><clipPath id="e281efe252"><path d="M 361.050781 337.496094 L -91.0625 169.691406 L -36.519531 22.738281 L 415.59375 190.542969 Z M 361.050781 337.496094 " clip-rule="nonzero"/></clipPath></defs><g clip-path="url(#6e2572ad3f)"><g clip-path="url(#4d2ee7a205)"><g clip-path="url(#cfd3248649)"><g clip-path="url(#6e83c4fda4)"><g clip-path="url(#e281efe252)"><path fill="#ff3131" d="M 302.519531 237.203125 C 333.378906 220.921875 381.371094 218.597656 411.464844 201.582031 C 406.34375 203.574219 390.601562 198.609375 390.433594 198.578125 C 347.488281 188.351562 299.574219 228.230469 263.917969 250.285156 C 219.296875 277.882812 213.207031 243.558594 201.050781 232.933594 C 192.289062 225.277344 180.648438 184.5625 178.746094 183.855469 C 147.453125 172.847656 114.84375 208.085938 108.972656 188.632812 C 94.296875 139.8125 82.859375 141.144531 70.859375 112.117188 C 64.925781 97.777344 25.96875 131.589844 18.414062 95.035156 C 14.679688 76.910156 0.015625 66.78125 -8.511719 52.023438 C -22.394531 27.925781 -39.609375 30.867188 -31.746094 40.261719 C -3.523438 74.152344 -6.5 65.628906 14.441406 108.8125 C 38.816406 159.070312 50.21875 75.015625 80.125 155.164062 C 113.226562 243.890625 123.921875 184.664062 163.121094 192.242188 C 179.054688 195.320312 182.023438 270.972656 222.226562 271.792969 C 224.148438 271.828125 296.730469 240.179688 302.46875 237.152344 " fill-opacity="1" fill-rule="evenodd"/></g></g></g></g></g></svg>