<svg xmlns="http://www.w3.org/2000/svg" xmlns:xlink="http://www.w3.org/1999/xlink" width="100" zoomAndPan="magnify" viewBox="0 0 75 37.5" height="50" preserveAspectRatio="xMidYMid meet" version="1.0"><defs><g/><clipPath id="22d7e9ff31"><path d="M 13 0 L 70.800781 0 L 70.800781 18 L 13 18 Z M 13 0 " clip-rule="nonzero"/></clipPath><clipPath id="0acc08eb9a"><rect x="0" width="33" y="0" height="28"/></clipPath><clipPath id="378a118a2e"><path d="M 0.125 11 L 8 11 L 8 18 L 0.125 18 Z M 0.125 11 " clip-rule="nonzero"/></clipPath><clipPath id="0f2108085c"><path d="M 24 11 L 32.335938 11 L 32.335938 23 L 24 23 Z M 24 11 " clip-rule="nonzero"/></clipPath><clipPath id="bcfbe69433"><rect x="0" width="33" y="0" height="23"/></clipPath></defs><g clip-path="url(#22d7e9ff31)"><path fill="#ffffff" d="M 59.90625 10.109375 C 62.730469 6.953125 68.089844 4.660156 70.796875 1.453125 C 70.296875 1.898438 68.296875 1.996094 68.277344 2 C 62.957031 2.652344 59.191406 9.210938 56.066406 13.226562 C 52.152344 18.25 50.011719 14.601562 48.179688 13.90625 C 46.859375 13.40625 43.816406 9.265625 43.570312 9.265625 C 39.542969 9.335938 37.320312 14.71875 35.832031 12.753906 C 32.101562 7.820312 30.855469 8.453125 28.265625 5.660156 C 26.984375 4.277344 23.980469 9.769531 21.574219 5.929688 C 20.386719 4.023438 18.289062 3.492188 16.695312 2.171875 C 14.097656 0.015625 12.265625 1.078125 13.554688 1.816406 C 18.199219 4.480469 17.5 3.636719 21.707031 7.664062 C 26.601562 12.355469 24.347656 2.308594 31.136719 10.164062 C 38.648438 18.863281 37.367188 11.671875 42.144531 10.878906 C 44.089844 10.554688 47.621094 19.039062 52.230469 17.433594 C 52.449219 17.355469 59.371094 10.691406 59.898438 10.105469 " fill-opacity="1" fill-rule="evenodd"/></g><g transform="matrix(1, 0, 0, 1, 2, 9)"><g clip-path="url(#0acc08eb9a)"><g fill="#ffffff" fill-opacity="1"><g transform="translate(0.816339, 21.161151)"><g><path d="M 4.984375 -18.828125 C 6.398438 -18.828125 7.445312 -18.40625 8.125 -17.5625 C 8.800781 -16.71875 9.140625 -15.585938 9.140625 -14.171875 L 9.140625 -13.671875 L 7.171875 -13.671875 L 7.171875 -14.28125 C 7.171875 -15.132812 7 -15.789062 6.65625 -16.25 C 6.320312 -16.707031 5.78125 -16.9375 5.03125 -16.9375 C 4.289062 -16.9375 3.75 -16.707031 3.40625 -16.25 C 3.070312 -15.789062 2.90625 -15.144531 2.90625 -14.3125 C 2.90625 -13.613281 3.0625 -13.003906 3.375 -12.484375 C 3.6875 -11.972656 4.070312 -11.5 4.53125 -11.0625 C 4.988281 -10.632812 5.488281 -10.210938 6.03125 -9.796875 C 6.570312 -9.378906 7.070312 -8.921875 7.53125 -8.421875 C 8 -7.921875 8.390625 -7.351562 8.703125 -6.71875 C 9.015625 -6.09375 9.171875 -5.34375 9.171875 -4.46875 C 9.171875 -3.050781 8.828125 -1.921875 8.140625 -1.078125 C 7.453125 -0.234375 6.390625 0.1875 4.953125 0.1875 C 3.515625 0.1875 2.457031 -0.234375 1.78125 -1.078125 C 1.101562 -1.921875 0.765625 -3.050781 0.765625 -4.46875 L 0.765625 -5.546875 L 2.71875 -5.546875 L 2.71875 -4.375 C 2.71875 -3.519531 2.894531 -2.859375 3.25 -2.390625 C 3.601562 -1.929688 4.15625 -1.703125 4.90625 -1.703125 C 5.644531 -1.703125 6.191406 -1.929688 6.546875 -2.390625 C 6.910156 -2.859375 7.09375 -3.519531 7.09375 -4.375 C 7.09375 -5.0625 6.9375 -5.65625 6.625 -6.15625 C 6.3125 -6.664062 5.921875 -7.140625 5.453125 -7.578125 C 4.992188 -8.015625 4.5 -8.441406 3.96875 -8.859375 C 3.4375 -9.273438 2.9375 -9.726562 2.46875 -10.21875 C 2.007812 -10.71875 1.625 -11.285156 1.3125 -11.921875 C 1.007812 -12.554688 0.859375 -13.304688 0.859375 -14.171875 C 0.859375 -15.609375 1.191406 -16.742188 1.859375 -17.578125 C 2.535156 -18.410156 3.578125 -18.828125 4.984375 -18.828125 Z M 4.984375 -18.828125 "/></g></g></g><g fill="#ffffff" fill-opacity="1"><g transform="translate(11.472692, 21.161151)"><g><path d="M 5.171875 -18.828125 C 6.609375 -18.828125 7.679688 -18.40625 8.390625 -17.5625 C 9.097656 -16.71875 9.453125 -15.578125 9.453125 -14.140625 L 9.453125 -4.5 C 9.453125 -3.3125 9.210938 -2.34375 8.734375 -1.59375 C 8.835938 -1.363281 8.976562 -1.207031 9.15625 -1.125 C 9.34375 -1.050781 9.585938 -1.015625 9.890625 -1.015625 L 10.15625 -1.015625 L 10.15625 0.828125 L 9.796875 0.828125 C 8.660156 0.828125 7.875 0.425781 7.4375 -0.375 C 7.132812 -0.195312 6.796875 -0.0625 6.421875 0.03125 C 6.046875 0.132812 5.628906 0.1875 5.171875 0.1875 C 3.734375 0.1875 2.660156 -0.238281 1.953125 -1.09375 C 1.253906 -1.945312 0.90625 -3.082031 0.90625 -4.5 L 0.90625 -14.140625 C 0.90625 -15.578125 1.253906 -16.71875 1.953125 -17.5625 C 2.660156 -18.40625 3.734375 -18.828125 5.171875 -18.828125 Z M 5.171875 -16.9375 C 4.421875 -16.9375 3.863281 -16.703125 3.5 -16.234375 C 3.132812 -15.765625 2.953125 -15.101562 2.953125 -14.25 L 2.953125 -4.390625 C 2.953125 -3.535156 3.132812 -2.875 3.5 -2.40625 C 3.863281 -1.9375 4.421875 -1.703125 5.171875 -1.703125 C 5.929688 -1.703125 6.488281 -1.9375 6.84375 -2.40625 C 7.195312 -2.875 7.375 -3.535156 7.375 -4.390625 L 7.375 -14.25 C 7.375 -15.101562 7.195312 -15.765625 6.84375 -16.234375 C 6.488281 -16.703125 5.929688 -16.9375 5.171875 -16.9375 Z M 5.171875 -16.9375 "/></g></g></g><g fill="#ffffff" fill-opacity="1"><g transform="translate(22.928269, 21.161151)"><g><path d="M 1.0625 0 L 1.0625 -18.65625 L 3.140625 -18.65625 L 3.140625 -1.890625 L 8.46875 -1.890625 L 8.46875 0 Z M 1.0625 0 "/></g></g></g></g></g><g transform="matrix(1, 0, 0, 1, 34, 13)"><g clip-path="url(#bcfbe69433)"><g clip-path="url(#378a118a2e)"><g fill="#ffffff" fill-opacity="1"><g transform="translate(0.281431, 17.19271)"><g><path d="M 6.75 -3.78125 C 6.78125 -3.789062 6.820312 -3.796875 6.875 -3.796875 C 7 -3.796875 7.09375 -3.753906 7.15625 -3.671875 C 7.226562 -3.585938 7.265625 -3.472656 7.265625 -3.328125 C 7.265625 -3.078125 7.210938 -2.878906 7.109375 -2.734375 C 7.015625 -2.585938 6.867188 -2.476562 6.671875 -2.40625 C 6.285156 -2.28125 5.878906 -2.21875 5.453125 -2.21875 C 5.085938 -2.21875 4.742188 -2.269531 4.421875 -2.375 C 4.171875 -1.988281 3.90625 -1.585938 3.625 -1.171875 C 3.289062 -0.691406 3.003906 -0.363281 2.765625 -0.1875 C 2.523438 -0.0195312 2.25 0.0625 1.9375 0.0625 C 1.601562 0.0625 1.335938 -0.0664062 1.140625 -0.328125 C 0.941406 -0.597656 0.816406 -1.019531 0.765625 -1.59375 C 0.671875 -2.75 0.625 -3.765625 0.625 -4.640625 L 0.625 -5.078125 C 0.632812 -5.347656 0.707031 -5.535156 0.84375 -5.640625 C 0.988281 -5.753906 1.203125 -5.8125 1.484375 -5.8125 C 1.691406 -5.8125 1.847656 -5.757812 1.953125 -5.65625 C 2.054688 -5.5625 2.109375 -5.40625 2.109375 -5.1875 C 2.109375 -4.226562 2.164062 -2.988281 2.28125 -1.46875 C 2.78125 -2.207031 3.15625 -2.796875 3.40625 -3.234375 C 3.28125 -3.472656 3.21875 -3.757812 3.21875 -4.09375 C 3.21875 -4.375 3.28125 -4.644531 3.40625 -4.90625 C 3.53125 -5.175781 3.695312 -5.394531 3.90625 -5.5625 C 4.125 -5.726562 4.375 -5.8125 4.65625 -5.8125 C 4.894531 -5.8125 5.085938 -5.722656 5.234375 -5.546875 C 5.378906 -5.378906 5.453125 -5.132812 5.453125 -4.8125 C 5.453125 -4.4375 5.351562 -4.007812 5.15625 -3.53125 C 5.476562 -3.550781 5.898438 -3.613281 6.421875 -3.71875 Z M 6.75 -3.78125 "/></g></g></g></g><g fill="#ffffff" fill-opacity="1"><g transform="translate(5.863631, 17.19271)"><g><path d="M 2.125 0.0625 C 1.613281 0.0625 1.203125 -0.125 0.890625 -0.5 C 0.585938 -0.875 0.4375 -1.363281 0.4375 -1.96875 C 0.4375 -2.625 0.585938 -3.25 0.890625 -3.84375 C 1.203125 -4.4375 1.613281 -4.914062 2.125 -5.28125 C 2.632812 -5.644531 3.175781 -5.828125 3.75 -5.828125 C 3.925781 -5.828125 4.046875 -5.789062 4.109375 -5.71875 C 4.171875 -5.644531 4.222656 -5.515625 4.265625 -5.328125 C 4.441406 -5.367188 4.625 -5.390625 4.8125 -5.390625 C 5.21875 -5.390625 5.421875 -5.242188 5.421875 -4.953125 C 5.421875 -4.773438 5.359375 -4.359375 5.234375 -3.703125 C 5.046875 -2.753906 4.953125 -2.09375 4.953125 -1.71875 C 4.953125 -1.59375 4.984375 -1.492188 5.046875 -1.421875 C 5.109375 -1.347656 5.1875 -1.3125 5.28125 -1.3125 C 5.4375 -1.3125 5.625 -1.410156 5.84375 -1.609375 C 6.070312 -1.816406 6.378906 -2.144531 6.765625 -2.59375 C 6.867188 -2.71875 6.984375 -2.78125 7.109375 -2.78125 C 7.210938 -2.78125 7.296875 -2.726562 7.359375 -2.625 C 7.421875 -2.519531 7.453125 -2.382812 7.453125 -2.21875 C 7.453125 -1.882812 7.375 -1.625 7.21875 -1.4375 C 6.875 -1.019531 6.507812 -0.664062 6.125 -0.375 C 5.75 -0.0820312 5.382812 0.0625 5.03125 0.0625 C 4.75 0.0625 4.492188 -0.03125 4.265625 -0.21875 C 4.046875 -0.40625 3.875 -0.660156 3.75 -0.984375 C 3.320312 -0.285156 2.78125 0.0625 2.125 0.0625 Z M 2.578125 -1.1875 C 2.753906 -1.1875 2.925781 -1.296875 3.09375 -1.515625 C 3.257812 -1.734375 3.378906 -2.019531 3.453125 -2.375 L 3.921875 -4.671875 C 3.566406 -4.660156 3.242188 -4.523438 2.953125 -4.265625 C 2.660156 -4.015625 2.425781 -3.679688 2.25 -3.265625 C 2.070312 -2.859375 1.984375 -2.421875 1.984375 -1.953125 C 1.984375 -1.691406 2.035156 -1.5 2.140625 -1.375 C 2.242188 -1.25 2.390625 -1.1875 2.578125 -1.1875 Z M 2.578125 -1.1875 "/></g></g></g><g fill="#ffffff" fill-opacity="1"><g transform="translate(11.706915, 17.19271)"><g><path d="M 5.3125 -2.78125 C 5.414062 -2.78125 5.5 -2.726562 5.5625 -2.625 C 5.625 -2.519531 5.65625 -2.382812 5.65625 -2.21875 C 5.65625 -1.882812 5.578125 -1.625 5.421875 -1.4375 C 5.066406 -1 4.675781 -0.640625 4.25 -0.359375 C 3.832031 -0.078125 3.359375 0.0625 2.828125 0.0625 C 2.097656 0.0625 1.554688 -0.265625 1.203125 -0.921875 C 0.859375 -1.585938 0.6875 -2.445312 0.6875 -3.5 C 0.6875 -4.519531 0.816406 -5.675781 1.078125 -6.96875 C 1.335938 -8.257812 1.722656 -9.367188 2.234375 -10.296875 C 2.742188 -11.222656 3.347656 -11.6875 4.046875 -11.6875 C 4.453125 -11.6875 4.765625 -11.5 4.984375 -11.125 C 5.210938 -10.757812 5.328125 -10.234375 5.328125 -9.546875 C 5.328125 -8.566406 5.050781 -7.425781 4.5 -6.125 C 3.957031 -4.820312 3.21875 -3.53125 2.28125 -2.25 C 2.34375 -1.90625 2.441406 -1.660156 2.578125 -1.515625 C 2.710938 -1.378906 2.882812 -1.3125 3.09375 -1.3125 C 3.4375 -1.3125 3.734375 -1.40625 3.984375 -1.59375 C 4.242188 -1.789062 4.570312 -2.125 4.96875 -2.59375 C 5.070312 -2.71875 5.1875 -2.78125 5.3125 -2.78125 Z M 3.78125 -10.453125 C 3.59375 -10.453125 3.378906 -10.109375 3.140625 -9.421875 C 2.898438 -8.734375 2.6875 -7.878906 2.5 -6.859375 C 2.3125 -5.835938 2.210938 -4.863281 2.203125 -3.9375 C 2.785156 -4.90625 3.25 -5.875 3.59375 -6.84375 C 3.945312 -7.820312 4.125 -8.710938 4.125 -9.515625 C 4.125 -10.140625 4.007812 -10.453125 3.78125 -10.453125 Z M 3.78125 -10.453125 "/></g></g></g><g fill="#ffffff" fill-opacity="1"><g transform="translate(15.759916, 17.19271)"><g><path d="M 5.3125 -2.78125 C 5.414062 -2.78125 5.5 -2.726562 5.5625 -2.625 C 5.625 -2.519531 5.65625 -2.382812 5.65625 -2.21875 C 5.65625 -1.882812 5.578125 -1.625 5.421875 -1.4375 C 5.066406 -1 4.675781 -0.640625 4.25 -0.359375 C 3.832031 -0.078125 3.359375 0.0625 2.828125 0.0625 C 2.097656 0.0625 1.554688 -0.265625 1.203125 -0.921875 C 0.859375 -1.585938 0.6875 -2.445312 0.6875 -3.5 C 0.6875 -4.519531 0.816406 -5.675781 1.078125 -6.96875 C 1.335938 -8.257812 1.722656 -9.367188 2.234375 -10.296875 C 2.742188 -11.222656 3.347656 -11.6875 4.046875 -11.6875 C 4.453125 -11.6875 4.765625 -11.5 4.984375 -11.125 C 5.210938 -10.757812 5.328125 -10.234375 5.328125 -9.546875 C 5.328125 -8.566406 5.050781 -7.425781 4.5 -6.125 C 3.957031 -4.820312 3.21875 -3.53125 2.28125 -2.25 C 2.34375 -1.90625 2.441406 -1.660156 2.578125 -1.515625 C 2.710938 -1.378906 2.882812 -1.3125 3.09375 -1.3125 C 3.4375 -1.3125 3.734375 -1.40625 3.984375 -1.59375 C 4.242188 -1.789062 4.570312 -2.125 4.96875 -2.59375 C 5.070312 -2.71875 5.1875 -2.78125 5.3125 -2.78125 Z M 3.78125 -10.453125 C 3.59375 -10.453125 3.378906 -10.109375 3.140625 -9.421875 C 2.898438 -8.734375 2.6875 -7.878906 2.5 -6.859375 C 2.3125 -5.835938 2.210938 -4.863281 2.203125 -3.9375 C 2.785156 -4.90625 3.25 -5.875 3.59375 -6.84375 C 3.945312 -7.820312 4.125 -8.710938 4.125 -9.515625 C 4.125 -10.140625 4.007812 -10.453125 3.78125 -10.453125 Z M 3.78125 -10.453125 "/></g></g></g><g fill="#ffffff" fill-opacity="1"><g transform="translate(19.812917, 17.19271)"><g><path d="M 6.140625 -2.78125 C 6.253906 -2.78125 6.34375 -2.726562 6.40625 -2.625 C 6.46875 -2.519531 6.5 -2.382812 6.5 -2.21875 C 6.5 -1.882812 6.414062 -1.625 6.25 -1.4375 C 5.945312 -1.070312 5.515625 -0.726562 4.953125 -0.40625 C 4.390625 -0.09375 3.789062 0.0625 3.15625 0.0625 C 2.289062 0.0625 1.613281 -0.171875 1.125 -0.640625 C 0.644531 -1.117188 0.40625 -1.769531 0.40625 -2.59375 C 0.40625 -3.15625 0.523438 -3.679688 0.765625 -4.171875 C 1.003906 -4.671875 1.335938 -5.066406 1.765625 -5.359375 C 2.191406 -5.648438 2.675781 -5.796875 3.21875 -5.796875 C 3.695312 -5.796875 4.082031 -5.648438 4.375 -5.359375 C 4.664062 -5.078125 4.8125 -4.691406 4.8125 -4.203125 C 4.8125 -3.628906 4.601562 -3.132812 4.1875 -2.71875 C 3.78125 -2.3125 3.085938 -1.988281 2.109375 -1.75 C 2.316406 -1.375 2.710938 -1.1875 3.296875 -1.1875 C 3.671875 -1.1875 4.09375 -1.316406 4.5625 -1.578125 C 5.039062 -1.835938 5.457031 -2.175781 5.8125 -2.59375 C 5.90625 -2.71875 6.015625 -2.78125 6.140625 -2.78125 Z M 3.015625 -4.578125 C 2.703125 -4.578125 2.441406 -4.394531 2.234375 -4.03125 C 2.023438 -3.675781 1.921875 -3.25 1.921875 -2.75 L 1.921875 -2.71875 C 2.410156 -2.832031 2.796875 -3.003906 3.078125 -3.234375 C 3.359375 -3.472656 3.5 -3.742188 3.5 -4.046875 C 3.5 -4.210938 3.453125 -4.34375 3.359375 -4.4375 C 3.273438 -4.53125 3.160156 -4.578125 3.015625 -4.578125 Z M 3.015625 -4.578125 "/></g></g></g><g clip-path="url(#0f2108085c)"><g fill="#ffffff" fill-opacity="1"><g transform="translate(24.698897, 17.19271)"><g><path d="M 6.96875 -2.75 C 7.070312 -2.75 7.15625 -2.695312 7.21875 -2.59375 C 7.28125 -2.488281 7.3125 -2.359375 7.3125 -2.203125 C 7.3125 -2.015625 7.28125 -1.863281 7.21875 -1.75 C 7.164062 -1.644531 7.078125 -1.550781 6.953125 -1.46875 L 4.5625 0.140625 C 4.25 1.859375 3.835938 3.207031 3.328125 4.1875 C 2.816406 5.164062 2.164062 5.65625 1.375 5.65625 C 0.957031 5.65625 0.613281 5.523438 0.34375 5.265625 C 0.0820312 5.003906 -0.046875 4.660156 -0.046875 4.234375 C -0.046875 3.847656 0.0390625 3.453125 0.21875 3.046875 C 0.394531 2.640625 0.722656 2.171875 1.203125 1.640625 C 1.691406 1.117188 2.378906 0.519531 3.265625 -0.15625 L 3.3125 -0.453125 C 3.363281 -0.753906 3.425781 -1.191406 3.5 -1.765625 C 3.34375 -1.171875 3.113281 -0.71875 2.8125 -0.40625 C 2.507812 -0.09375 2.191406 0.0625 1.859375 0.0625 C 1.492188 0.0625 1.191406 -0.109375 0.953125 -0.453125 C 0.710938 -0.796875 0.59375 -1.222656 0.59375 -1.734375 C 0.59375 -2.359375 0.632812 -2.929688 0.71875 -3.453125 C 0.800781 -3.972656 0.9375 -4.519531 1.125 -5.09375 C 1.207031 -5.34375 1.320312 -5.519531 1.46875 -5.625 C 1.625 -5.738281 1.863281 -5.796875 2.1875 -5.796875 C 2.375 -5.796875 2.5 -5.765625 2.5625 -5.703125 C 2.632812 -5.648438 2.671875 -5.566406 2.671875 -5.453125 C 2.671875 -5.378906 2.625 -5.15625 2.53125 -4.78125 C 2.445312 -4.46875 2.382812 -4.1875 2.34375 -3.9375 C 2.269531 -3.601562 2.207031 -3.28125 2.15625 -2.96875 C 2.113281 -2.65625 2.09375 -2.398438 2.09375 -2.203125 C 2.09375 -1.890625 2.175781 -1.734375 2.34375 -1.734375 C 2.46875 -1.734375 2.625 -1.851562 2.8125 -2.09375 C 3 -2.34375 3.195312 -2.722656 3.40625 -3.234375 C 3.625 -3.742188 3.832031 -4.363281 4.03125 -5.09375 C 4.09375 -5.34375 4.191406 -5.519531 4.328125 -5.625 C 4.472656 -5.738281 4.679688 -5.796875 4.953125 -5.796875 C 5.140625 -5.796875 5.269531 -5.769531 5.34375 -5.71875 C 5.414062 -5.664062 5.453125 -5.582031 5.453125 -5.46875 C 5.453125 -5.257812 5.347656 -4.546875 5.140625 -3.328125 L 4.8125 -1.328125 C 5.445312 -1.804688 6.066406 -2.25 6.671875 -2.65625 C 6.785156 -2.71875 6.882812 -2.75 6.96875 -2.75 Z M 1.515625 4.453125 C 1.722656 4.453125 1.953125 4.210938 2.203125 3.734375 C 2.460938 3.253906 2.722656 2.453125 2.984375 1.328125 C 2.347656 1.867188 1.882812 2.359375 1.59375 2.796875 C 1.3125 3.242188 1.171875 3.632812 1.171875 3.96875 C 1.171875 4.101562 1.195312 4.21875 1.25 4.3125 C 1.300781 4.40625 1.390625 4.453125 1.515625 4.453125 Z M 1.515625 4.453125 "/></g></g></g></g></g></g></svg>